<?xml version="1.0" encoding="UTF-8"?>
<svg id="Layer_1" data-name="Layer 1" xmlns="http://www.w3.org/2000/svg" viewBox="0 0 965.59 965.59">
  <defs>
    <style>
      .cls-1 {
        fill: #e9a23b;
      }
    </style>
  </defs>
  <rect class="cls-1" width="965.59" height="965.59" rx="108.93" ry="108.93"/>
  <g id="_9FGFdS.tif" data-name="9FGFdS.tif">
    <g>
      <path d="M708.58,798.36l-156.45-182.34c-19.08-22.24-38-39.03-69.8-39.63-52.27-.98-90.17-9.18-126.82-48.96-90.42-98.13-183.07-225.3-193.1-361.38-.8-10.82,5.54-25.53,17.15-24.92,24.85,22.64,45.55,46.58,69.42,70.45l330.72,330.81c28.83,28.84,59.29,52.19,89.83,78.51l124.24,107.08c14.4,12.41,25.42,28.43,30.75,46.39,5.85,19.72-3.55,39.84-17.72,52.09-14.88,12.85-35.94,15.37-54.76,7.31-17.86-7.65-30.09-19.83-43.47-35.42Z"/>
      <path d="M677.02,374.23l147.18-146.48c2.6-2.15,11.79,3.11,13.22,6.09,1.71,3.57.58,9.95-3.28,14.52l-127.9,151.39c-27.75,32.84-45.98,52.53-89.96,45.22-25.76-4.28-48.69.82-69.08,18.48l-44.89-44.91c18.02-20.74,22.64-45.49,17.92-71.47-4.74-26.08,3.52-50.14,23.38-67.48l63.86-55.75,109.92-92.39c3.75-3.15,9.44-4.89,12.68-4.13,3.7.87,10.62,11.18,7.93,13.89l-146.15,146.8c-8.47,8.51,1.57,23.69,8.09,27.77,10.51,6.59,19.42,4.54,28.62-4.37l58.04-56.23,46.52-44,38.71-36.4c6.38-6.01,25.23,9.69,19.32,17.5-9.21,12.17-20.55,23.61-31.34,34.95l-53.21,55.87-57.5,59.97c-5.98,6.23-2.38,18.48,1.61,23.82,4.01,5.39,18.1,15.57,26.34,7.36Z"/>
      <path d="M209.08,830.06c-22.48,13.64-48.84,10.06-65.81-6.25-16.9-16.24-20.98-42.48-8.99-64.55,9.8-18.05,24.62-31.22,40.41-44.77l154.47-132.54c6.68-5.73,12.47-11.43,19.43-14.78,20.49,17.6,41.08,26.96,66,35.2l-27.18,29.97-137.38,160.15c-12.22,14.25-24.32,27.48-40.96,37.57Z"/>
    </g>
  </g>
</svg>