<?xml version="1.0" encoding="UTF-8"?>
<svg id="Layer_1" data-name="Layer 1" xmlns="http://www.w3.org/2000/svg" viewBox="0 0 1017.72 595.48">
  <defs>
    <style>
      .cls-1 {
        fill: #ce882c;
      }

      .cls-2 {
        fill: #e9a23b;
      }

      .cls-3 {
        fill: #fff;
      }
    </style>
  </defs>
  <g>
    <path class="cls-1" d="M594.79,297.74c0,164.44-133.15,297.74-297.39,297.74S0,462.17,0,297.74,133.15,0,297.4,0s297.39,133.3,297.39,297.74ZM345.89,538.72l.44-69.99c.04-6.17-5.99-17.92-10.5-23.9l-.66-133.45,43.49-.18c5.35-.02,16.13-7.33,16.13-13.66l-.08-119.31c-.01-21.1-15.3-41.52-37.63-41.65l-61.92-.37c-18.25-.11-37.65,16.25-37.74,35.03l-.57,125.51c-.03,6.06,8.74,14.41,14.49,14.39l44.1-.11-.26,131.25-9.67,19.52.34,81.3,40.05-4.36ZM221.23,515.76l27.11-.77c-1.49-91.93-8.41-178.75-32.63-264.47-14.53-41.77-27.4-82.06-65.74-113.67l-1.65,353.38c11.4,11.54,25.57,20.17,40.62,26.83l36.07,15.94-3.79-17.22ZM447.86,481.24l1.2-52.44c37.69-14.64,44.7-74.06,27.89-105.07-7.12-13.14-21.52-22.01-34.43-21.99-11.48.01-25.82,8.04-32.7,19.58-18.55,31.06-11.91,91.8,26.29,107.85l-.31,68.59c6.03.13,11.86-7.74,12.06-16.51Z"/>
    <path class="cls-3" d="M221.23,515.76l3.79,17.22-36.07-15.94c-15.05-6.65-29.22-15.29-40.62-26.83l1.65-353.38c38.33,31.61,51.21,71.89,65.74,113.67,24.22,85.73,31.14,172.55,32.63,264.47l-27.11.77Z"/>
    <path class="cls-3" d="M345.89,538.72l-40.05,4.36-.34-81.3,9.67-19.52.26-131.25-44.1.11c-5.75.01-14.52-8.34-14.49-14.39l.57-125.51c.09-18.78,19.49-35.13,37.74-35.03l61.92.37c22.33.13,37.62,20.55,37.63,41.65l.08,119.31c0,6.33-10.78,13.63-16.13,13.66l-43.49.18.66,133.45c4.51,5.98,10.54,17.74,10.5,23.9l-.44,69.99ZM287.73,171.41c.02-4.32-5.22-14.72-6.47-13.07s-5.57,7.85-5.53,11.43l1.27,123.74,10.19-.77.54-121.34ZM299.85,294.08l9.43-6.56-.22-121.43-3.76-7.14c-.73-1.39-4.12,2.3-6.75,4.77l1.3,130.36ZM330.49,158.94h-7.87v133.86h7.87v-133.86ZM354.48,169.53c.01-2.54-5.04-12.71-6.31-11.08s-5.92,7.88-5.89,11.1l1.46,123.9,10.22-.85.52-123.06ZM376.69,176.07l-1.91-15.68c-.26-2.13-5.79.58-9.28,2.63l-.15,127.52,11.03,1.13.31-115.6Z"/>
    <path class="cls-3" d="M447.86,481.24c-.2,8.77-6.02,16.63-12.06,16.51l.31-68.59c-38.2-16.05-44.84-76.78-26.29-107.85,6.89-11.54,21.22-19.57,32.7-19.58,12.91-.01,27.31,8.85,34.43,21.99,16.81,31.01,9.8,90.43-27.89,105.07l-1.2,52.44Z"/>
    <path class="cls-1" d="M287.73,171.41l-.54,121.34-10.19.77-1.27-123.74c-.04-3.59,4.27-9.79,5.53-11.43s6.49,8.75,6.47,13.07Z"/>
    <path class="cls-1" d="M354.48,169.53l-.52,123.06-10.22.85-1.46-123.9c-.04-3.22,4.61-9.47,5.89-11.1s6.32,8.54,6.31,11.08Z"/>
    <path class="cls-1" d="M376.69,176.07l-.31,115.6-11.03-1.13.15-127.52c3.49-2.05,9.02-4.76,9.28-2.63l1.91,15.68Z"/>
    <path class="cls-1" d="M299.85,294.08l-1.3-130.36c2.64-2.47,6.02-6.17,6.75-4.77l3.76,7.14.22,121.43-9.43,6.56Z"/>
    <rect class="cls-1" x="322.62" y="158.94" width="7.87" height="133.86"/>
  </g>
  <path class="cls-3" d="M674.43,336.75c-12.38-29.01-12.45-49.95-.2-77.86l-72.39-.38.89,78.91,71.69-.67ZM814.99,336.94l172.55.33c20.46.03,30.88-19.22,30.14-37.89-.44-11.51-2.63-22.73-9.47-30.53-5.14-5.89-18.4-10.64-28.46-10.56l-161.55,1.33c-8.37.06-25.39,9.96-34.03,7.87-29.05-7.01-53.11-14.07-81.65-22.76-16.72,8.68-29.43,33.88-29.14,52.4.3,19.37,12.72,46.78,30.02,54.82,42.41-14.69,83.99-36.18,111.59-15.01Z"/>
  <path class="cls-2" d="M703.41,351.95c-17.3-8.03-29.72-35.45-30.02-54.82-.29-18.53,12.42-43.72,29.14-52.4,28.54,8.68,52.6,15.75,81.64,22.75,8.65,2.09,25.67-7.81,34.04-7.87l161.55-1.32c10.07-.08,23.32,4.68,28.46,10.56,6.83,7.81,9.02,19.02,9.47,30.53.73,18.67-9.69,37.92-30.15,37.88l-172.55-.33c-27.59-21.18-69.17.31-111.57,15.01Z"/>
  <path class="cls-2" d="M602.74,337.41l-.89-78.9,72.38.37c-12.26,27.92-12.17,48.86.2,77.87l-71.69.66Z"/>
  <path class="cls-2" d="M297.39,0C133.15,0,0,133.31,0,297.73c0,164.44,133.15,297.74,297.39,297.74,164.24,0,297.39-133.3,297.39-297.74C594.79,133.31,461.64,0,297.39,0ZM297.39,543.09c-135.34,0-245.07-109.85-245.07-245.36,0-135.5,109.73-245.34,245.07-245.34,135.34,0,245.07,109.85,245.07,245.34,0,135.51-109.73,245.36-245.07,245.36Z"/>
</svg>